<?xml version="1.0" encoding="UTF-8"?>
<svg width="200" height="200" viewBox="0 0 200 200" xmlns="http://www.w3.org/2000/svg">
    <!-- Background -->
    <rect width="200" height="200" fill="#E3F2FD"/>
    
    <!-- Water waves -->
    <path d="M0 150 Q50 140 100 150 Q150 160 200 150 V200 H0 Z" fill="#BBDEFB"/>
    <path d="M0 160 Q50 150 100 160 Q150 170 200 160 V200 H0 Z" fill="#90CAF9"/>
    
    <!-- Coral reef -->
    <path d="M20 180 Q40 160 60 180 Q80 160 100 180 Q120 160 140 180 Q160 160 180 180 V200 H20 Z" fill="#FF8A65"/>
    
    <!-- Jellyfish -->
    <g transform="translate(40, 60)">
        <circle cx="0" cy="0" r="15" fill="#E1BEE7"/>
        <path d="M-15 0 Q-5 -20 5 0 Q15 20 15 0" fill="#CE93D8"/>
        <path d="M-10 0 Q0 -10 10 0" fill="#BA68C8"/>
    </g>
    
    <!-- Turtle -->
    <g transform="translate(120, 80)">
        <ellipse cx="0" cy="0" rx="20" ry="15" fill="#81C784"/>
        <circle cx="-8" cy="-5" r="3" fill="#2E7D32"/>
        <circle cx="8" cy="-5" r="3" fill="#2E7D32"/>
        <path d="M-15 5 Q0 10 15 5" fill="#2E7D32"/>
    </g>
    
    <!-- Fish -->
    <g transform="translate(80, 100)">
        <path d="M-15 0 Q-5 -10 5 0 Q15 10 15 0" fill="#64B5F6"/>
        <path d="M-5 0 Q0 -5 5 0" fill="#42A5F5"/>
        <circle cx="-10" cy="0" r="2" fill="#1976D2"/>
    </g>
    
    <!-- Seaweed -->
    <g transform="translate(30, 180)">
        <path d="M0 0 Q-10 -20 0 -40 Q10 -20 0 0" fill="#4CAF50"/>
        <path d="M5 0 Q-5 -25 5 -50 Q15 -25 5 0" fill="#388E3C"/>
    </g>
    
    <!-- Bubbles -->
    <circle cx="50" cy="40" r="3" fill="#B3E5FC"/>
    <circle cx="150" cy="30" r="2" fill="#B3E5FC"/>
    <circle cx="90" cy="20" r="4" fill="#B3E5FC"/>
</svg> 